<svg id="Layer_1" data-name="Layer 1" xmlns="http://www.w3.org/2000/svg" viewBox="0 0 39.75 40.78"><defs><style>.cls-1{fill:#242c42;}.cls-2{fill:#009cff;}.cls-3{fill:#03fcd2;}</style></defs><title>IconTcodeTjSite</title><path class="cls-1" d="M37.37,64H32.54a1,1,0,0,1-1-1.18l7-39.6h6Z" transform="translate(-24.03 -23.22)"/><path class="cls-2" d="M57.87,58.06,57,63.17A1,1,0,0,1,56,64H37.36l1-5.94Z" transform="translate(-24.03 -23.22)"/><path class="cls-2" d="M63.77,24.39l-.85,4.77H43.51l1-5.94H62.78A1,1,0,0,1,63.77,24.39Z" transform="translate(-24.03 -23.22)"/><polygon class="cls-2" points="19.36 40.78 13.33 40.78 20.52 0 26.55 0 19.36 40.78"/><path class="cls-1" d="M44.55,23.22l-1,5.94H24l.88-5.11a1,1,0,0,1,1-.83Z" transform="translate(-24.03 -23.22)"/><polygon class="cls-3" points="13.08 40.78 13.55 40.78 20.74 0 20.27 0 13.08 40.78"/></svg>