<svg xmlns="http://www.w3.org/2000/svg" xmlns:xlink="http://www.w3.org/1999/xlink" viewBox="0 0 674 404.45"><defs><style>.cls-1{fill:none;}.cls-2{fill:#ced3e6;}.cls-3{fill:#fff;}.cls-4{fill:#585859;}.cls-5{fill:#39393b;}.cls-6{fill:#df615c;}.cls-7{fill:#5392f3;}.cls-8{fill:#d2dcec;}.cls-9{clip-path:url(#clip-path);}.cls-10{fill:#ea9b7a;}.cls-11{fill:#d96c63;}.cls-12{fill:#faaf3a;}.cls-13{fill:#c77e2e;}.cls-14{fill:#0875f7;}.cls-15{fill:#084fc7;}.cls-16{opacity:0.8;}.cls-17{fill:#21b573;}.cls-18{fill:#217c58;}.cls-19{fill:#b11722;}</style><clipPath id="clip-path"><path class="cls-1" d="M300.39,200c-1.32,4-1.32,4.73-1.32,4l.05-115.11c0-.7-.05-.59-.05-83.95H557.94l0,195Z"/></clipPath></defs><g id="Layer_2" data-name="Layer 2"><g id="OBJECTS"><ellipse class="cls-2" cx="432.17" cy="356.93" rx="175.71" ry="9.06"/><path class="cls-2" d="M551.19,331.56H526.84v25.32h28.47v-21.2A4.13,4.13,0,0,0,551.19,331.56Z"/><rect class="cls-2" x="396.58" y="277.3" width="84.52" height="54.26"/><path class="cls-3" d="M328.48,331.56H529.8a15.92,15.92,0,0,1,15.92,15.92v9.4a0,0,0,0,1,0,0H312.56a0,0,0,0,1,0,0v-9.4A15.92,15.92,0,0,1,328.48,331.56Z"/><rect class="cls-3" x="386.23" y="277.3" width="84.52" height="54.26"/><polygon class="cls-2" points="386.23 293.96 470.75 287.19 470.76 277.3 386.34 277.3 386.23 293.96"/><rect class="cls-2" x="237.29" y="41.94" width="383.46" height="235.37" rx="11.29"/><path class="cls-4" d="M620.76,53.24v197H585.85V41.94h23.61A11.3,11.3,0,0,1,620.76,53.24Z"/><path class="cls-3" d="M606.4,53.24V266a11.29,11.29,0,0,1-11.29,11.29H248.59A11.29,11.29,0,0,1,237.29,266V53.24a11.3,11.3,0,0,1,11.3-11.3h347l.36,0h0l.26,0,.44,0,.28.05.13,0,.28.05A11.31,11.31,0,0,1,606.4,53.24Z"/><path class="cls-5" d="M597.38,42.17l-.28-.05-.13,0-.28-.05-.44,0L596,42h0l-.36,0h-347a11.3,11.3,0,0,0-11.3,11.3v197H606.4v-197A11.31,11.31,0,0,0,597.38,42.17ZM591.76,230.6a3.07,3.07,0,0,1-3.07,3.07H255a3.07,3.07,0,0,1-3.08-3.07V59.65A3.08,3.08,0,0,1,255,56.58H588.69a3.08,3.08,0,0,1,3.07,3.07Z"/><rect class="cls-2" x="251.93" y="56.58" width="339.82" height="177.09" rx="3.07"/><path class="cls-3" d="M591.76,59.65V75.79H251.93V59.65A3.08,3.08,0,0,1,255,56.58H588.69A3.08,3.08,0,0,1,591.76,59.65Z"/><path class="cls-6" d="M565.44,65.93a2.61,2.61,0,1,1-2.61-2.61A2.61,2.61,0,0,1,565.44,65.93Z"/><circle class="cls-7" cx="571.28" cy="65.93" r="2.61"/><rect class="cls-8" x="281.61" y="63.17" width="270.34" height="5.52" rx="2.43"/><path d="M264.2,65.93v2.55a.47.47,0,0,1-.7.41l-2.21-1.28-2.22-1.28a.47.47,0,0,1,0-.81l2.22-1.28L263.5,63a.46.46,0,0,1,.7.4Z"/><path d="M268.09,65.93v2.55a.47.47,0,0,0,.7.41L271,67.61l2.21-1.28a.47.47,0,0,0,0-.81L271,64.24,268.79,63a.46.46,0,0,0-.7.4Z"/><rect class="cls-5" x="576.44" y="65.1" width="6.27" height="1.47" rx="0.65" transform="translate(123.2 429.1) rotate(-45)"/><rect class="cls-5" x="578.83" y="62.7" width="1.47" height="6.27" rx="0.65" transform="translate(123.2 429.1) rotate(-45)"/><rect class="cls-3" x="290.35" y="79.68" width="262.09" height="147.12" rx="6.42"/><path class="cls-2" d="M366.21,155H308.74a1.59,1.59,0,0,1-1.59-1.59h0a1.6,1.6,0,0,1,1.59-1.6h57.47a1.6,1.6,0,0,1,1.59,1.6h0A1.59,1.59,0,0,1,366.21,155Z"/><path class="cls-2" d="M366.21,141.45H308.74a1.6,1.6,0,0,1-1.59-1.6h0a1.59,1.59,0,0,1,1.59-1.59h57.47a1.59,1.59,0,0,1,1.59,1.59h0A1.6,1.6,0,0,1,366.21,141.45Z"/><path class="cls-2" d="M366.21,168.46H308.74a1.59,1.59,0,0,1-1.59-1.6h0a1.59,1.59,0,0,1,1.59-1.59h57.47a1.59,1.59,0,0,1,1.59,1.59h0A1.59,1.59,0,0,1,366.21,168.46Z"/><path class="cls-2" d="M542.77,155H485.31a1.6,1.6,0,0,1-1.6-1.59h0a1.6,1.6,0,0,1,1.6-1.6h57.46a1.6,1.6,0,0,1,1.6,1.6h0A1.6,1.6,0,0,1,542.77,155Z"/><path class="cls-2" d="M542.77,141.45H485.31a1.6,1.6,0,0,1-1.6-1.6h0a1.6,1.6,0,0,1,1.6-1.59h57.46a1.6,1.6,0,0,1,1.6,1.59h0A1.6,1.6,0,0,1,542.77,141.45Z"/><path class="cls-2" d="M542.77,168.46H485.31a1.6,1.6,0,0,1-1.6-1.6h0a1.6,1.6,0,0,1,1.6-1.59h57.46a1.6,1.6,0,0,1,1.6,1.59h0A1.6,1.6,0,0,1,542.77,168.46Z"/><path class="cls-5" d="M290.35,204H552.43v21.49a1.36,1.36,0,0,1-1.36,1.36H291.71a1.36,1.36,0,0,1-1.36-1.36Z"/><path class="cls-3" d="M526.69,212.42v-1.94h2.42v-1.72h-3.28a.85.85,0,0,0-.86.86v2.8Z"/><path class="cls-3" d="M526.69,215.87H525v2.94a.85.85,0,0,0,.86.86h3.28V218h-2.42Z"/><path class="cls-3" d="M534.16,212.42h1.72v-2.8a.85.85,0,0,0-.86-.86h-3.16v1.72h2.3Z"/><path class="cls-3" d="M534.16,215.87V218h-2.3v1.72H535a.85.85,0,0,0,.86-.86v-2.94Z"/><polygon class="cls-3" points="305.61 214.59 305.61 209.14 310.33 211.87 315.04 214.59 310.33 217.31 305.61 220.03 305.61 214.59"/><rect class="cls-3" x="329.67" y="209.69" width="2.92" height="9.91" rx="0.84"/><rect class="cls-3" x="335.77" y="209.69" width="2.92" height="9.91" rx="0.84"/><rect class="cls-2" x="290.35" y="199.65" width="262.09" height="4.3"/><rect class="cls-6" x="290.35" y="199.66" width="134.48" height="4.3"/><path class="cls-5" d="M510.53,182.94h3v6.48h4v2.29h-6.91Z"/><path class="cls-5" d="M518.25,182.94h3v8.77h-3Z"/><path class="cls-5" d="M532,182.94l-3.71,8.77h-2.9l-3.71-8.77h3.18l2.09,5.12,2.14-5.12Z"/><path class="cls-5" d="M539.59,189.48v2.23H532.3v-8.77h7.13v2.23H535.2v1h3.71v2.13H535.2v1.15Z"/><path class="cls-6" d="M505.66,187.25a3.61,3.61,0,1,1-3.61-3.6A3.61,3.61,0,0,1,505.66,187.25Z"/><path class="cls-5" d="M322.36,189.69c0,2-1.9,3.3-4.62,3.3s-4.62-1.3-4.62-3.3a2.69,2.69,0,0,1,1.38-2.37,2.51,2.51,0,0,1-1-2c0-1.87,1.75-3.07,4.26-3.07s4.25,1.2,4.25,3.07a2.5,2.5,0,0,1-1,2A2.71,2.71,0,0,1,322.36,189.69Zm-3.49-.11a1.14,1.14,0,1,0-1.13,1.07A1,1,0,0,0,318.87,189.58Zm-2-4.14a.83.83,0,1,0,.83-.88A.81.81,0,0,0,316.91,185.44Z"/><path class="cls-5" d="M323,187.6c0-3.41,1.94-5.38,4.66-5.38s4.67,2,4.67,5.38-1.95,5.39-4.67,5.39S323,191,323,187.6Zm5.84,0c0-2-.5-2.6-1.18-2.6s-1.18.62-1.18,2.6.5,2.61,1.18,2.61S328.85,189.59,328.85,187.6Z"/><path class="cls-6" d="M307.08,184.71a3.17,3.17,0,1,1-3.17-3.17A3.17,3.17,0,0,1,307.08,184.71Z"/><path class="cls-6" d="M309.83,192.73H298a6.12,6.12,0,0,1,5.83-3.77H304A6.13,6.13,0,0,1,309.83,192.73Z"/><g class="cls-9"><path class="cls-10" d="M340.3,113.2s-1.59,9.66-8.7,11.39c-5.75,1.39-11.16-4.12-13-6.3-.44-.52-.69-.85-.69-.85a8.76,8.76,0,0,1-1.06,0c-1.5,0-4.16-.33-5.21-2.17-1.48-2.62,3.93-4.42,3.93-4.42s-2.78-2.47-2.08-4.27,4.4-2.14,4.4-2.14-4-2.6-2.66-4.87c2-3.41,6.16.34,6.49.55-.27-.3-5.45-5.67-2.61-6.64,2.47-.84,6.55,2,9.23,4.71l.67.69.44-.31c1.34-.89,5.45-3.3,8.08-1.11C340.65,100.15,340.3,113.2,340.3,113.2Z"/><path class="cls-11" d="M332.87,119.13a.56.56,0,0,1-.56,0,.55.55,0,0,1-.15-.78,5.13,5.13,0,0,0,.86-4.23c-.94-3.62-5.78-6.12-5.83-6.15a.57.57,0,0,1,.51-1c.22.12,5.35,2.77,6.41,6.87a6.17,6.17,0,0,1-1,5.15A.51.51,0,0,1,332.87,119.13Z"/><path class="cls-11" d="M327.93,105.2a1.76,1.76,0,0,1-.79,1.54,2.55,2.55,0,0,1-.37.19,4.65,4.65,0,0,1-1,.23,4,4,0,0,1,.73.59,1.92,1.92,0,0,1,.43.66,1.49,1.49,0,0,1-.25,1.43c-.9,1.2-3,1.69-4.7,1.89a6,6,0,0,1,2.63,2.67,1.77,1.77,0,0,1-.22,1.73,3.14,3.14,0,0,1-1.22.89,18.17,18.17,0,0,1-4.58,1.27c-.45-.52-.7-.85-.7-.85a9,9,0,0,1-1.07,0,.56.56,0,0,1,.3-.12c2.09-.24,5.67-1,6.37-1.91a.67.67,0,0,0,.06-.67c-.39-1.08-2.42-2.5-4.18-2.94a.54.54,0,0,1-.42-.61.56.56,0,0,1,.57-.5c1.39,0,5.23-.21,6.26-1.58.15-.19.11-.3.09-.36A1.9,1.9,0,0,0,325,108a14,14,0,0,0-3.34-1.25.52.52,0,0,1-.29-.18.54.54,0,0,1-.13-.5.55.55,0,0,1,.68-.42,11.25,11.25,0,0,1,1.1.3,13.64,13.64,0,0,0,2.56.1,2.29,2.29,0,0,0,.95-.27.65.65,0,0,0,.29-.6,3.66,3.66,0,0,0-.61-1.71.56.56,0,0,1,0-.63l0,0a.56.56,0,0,1,.91.06A4.66,4.66,0,0,1,327.93,105.2Z"/><path class="cls-5" d="M323.79,94.63a15,15,0,0,1,2.65,1.94c.8.77,1.31,1.16,1.86,1.66h0L317.44,52.17a.56.56,0,0,0-1.09.22l7.44,42.24Z"/><path class="cls-5" d="M333.23,120.21c-3.76,2.43-4.82.63-4.82.63L326.51,110l.15-.18a1.49,1.49,0,0,0,.25-1.43,1.92,1.92,0,0,0-.43-.66,3.31,3.31,0,0,0-.44-.39l0-.23a4.78,4.78,0,0,0,.77-.2,2.55,2.55,0,0,0,.37-.19,1.61,1.61,0,0,0,.69-.91,2.87,2.87,0,0,0,1.7.76,3.25,3.25,0,0,0,.54,0Z"/><path class="cls-11" d="M336.5,103.32a18.79,18.79,0,0,1-3.7,2.49,6.37,6.37,0,0,1-3.27.78,2.84,2.84,0,0,1-2-1.16c-1.79-2.4-.25-5.54.82-7.2l.67.69.44-.31c-.93,1.37-2.47,4.2-1,6.15a1.67,1.67,0,0,0,1.25.7c2,.21,5.09-2.08,6.12-3a.56.56,0,0,1,.74.85Z"/><path class="cls-12" d="M394.62,92.15v0h0l0,.06,0,.14-.06.33-.15.73c-.06.25-.11.51-.17.77s-.11.52-.18.78c-.24,1-.5,2.13-.79,3.19-.58,2.14-1.2,4.29-1.93,6.41s-1.48,4.22-2.33,6.27c-.44,1-.87,2-1.33,3.06s-.94,2-1.41,3c-1,2-2,3.91-3.14,5.77-.27.48-.57.93-.85,1.4s-.56.93-.86,1.38c-.6.9-1.19,1.81-1.82,2.68-1.22,1.78-2.57,3.44-3.91,5.09s-2.8,3.19-4.32,4.66c-.37.37-.74.75-1.12,1.11L369,140l-.58.53-.14.13.07-.06.1-.09c.14-.11.29-.21.44-.31a6.79,6.79,0,0,1,2.1-1c.18-.05.33-.1.5-.13l.25,0,.22,0a2.83,2.83,0,0,1,.41,0,1.83,1.83,0,0,1,.33,0H373a1.43,1.43,0,0,1,.23,0l.13,0h.09c.17.05-.16,0-.65-.22a15.18,15.18,0,0,1-1.88-1c-.72-.43-1.51-1-2.31-1.52-1.61-1.13-3.29-2.5-5-3.94s-3.39-3-5.08-4.64-3.38-3.28-5-5-3.34-3.46-5-5.23c-.83-.88-1.65-1.77-2.46-2.66l-2.36-2.58L325.49,126l.61.92.57.85,1.15,1.67c.78,1.1,1.57,2.19,2.36,3.27,1.6,2.16,3.24,4.29,4.94,6.38s3.47,4.17,5.32,6.21c.92,1,1.86,2,2.83,3.05s2,2,3,3a85.56,85.56,0,0,0,6.71,5.86c1.24,1,2.54,1.9,4,2.83a40.69,40.69,0,0,0,4.79,2.7,28.78,28.78,0,0,0,6.56,2.24l.5.1c.17,0,.35.06.53.09.36.06.72.1,1.09.15s.78.07,1.17.09l.59,0h.63l1.29,0,1.36-.14.69-.1.71-.14c.48-.1.95-.2,1.43-.34a19.62,19.62,0,0,0,5.55-2.58c.41-.29.81-.59,1.2-.89l.29-.23.26-.22.21-.18.83-.75,1.67-1.49c.55-.51,1.07-1,1.61-1.55,2.15-2.07,4.13-4.28,6.06-6.53s3.69-4.63,5.33-7.06,3.19-4.91,4.63-7.45l1.05-1.91c.34-.64.66-1.29,1-1.94s.65-1.29.95-1.95l.92-2a105.46,105.46,0,0,0,5.79-16.18c.73-2.76,1.39-5.54,1.89-8.37.26-1.42.49-2.84.68-4.3.05-.36.1-.73.14-1.1s.09-.74.12-1.12.08-.77.12-1.16l.1-1.39Z"/><path class="cls-13" d="M337.4,123.19a1.57,1.57,0,1,0,3.13-.27,1.57,1.57,0,1,0-3.13.27Z"/><path class="cls-13" d="M370.07,150.19a.67.67,0,0,0,.65-.51,51.23,51.23,0,0,0,1.1-11.64.67.67,0,0,0-.69-.65.68.68,0,0,0-.66.69,49.85,49.85,0,0,1-1.05,11.27.68.68,0,0,0,.49.82Z"/><path class="cls-13" d="M374.37,145.33a.82.82,0,0,0,.3-.07.68.68,0,0,0,.3-.9,54.19,54.19,0,0,0-3.29-5.82.67.67,0,1,0-1.05.83,58,58,0,0,1,3.14,5.58A.66.66,0,0,0,374.37,145.33Z"/><path class="cls-13" d="M332.57,136.23a.68.68,0,0,0,.49-.21c5.62-5.79,18.3-15,18.43-15a.67.67,0,0,0,.15-.94.66.66,0,0,0-.93-.15c-.13.09-12.92,9.32-18.62,15.2a.67.67,0,0,0,0,.95A.68.68,0,0,0,332.57,136.23Z"/><path class="cls-13" d="M338,131.27a.66.66,0,0,0,.43-.15.67.67,0,0,0,.09-1L331.74,122a.68.68,0,0,0-.95-.09.69.69,0,0,0-.09,1l6.79,8.14A.65.65,0,0,0,338,131.27Z"/><path class="cls-5" d="M411.21,289.69,420.3,236l.75-4.39-26.19-9.24-1.49-.53-6.23-2.2s-.5,2.3-1.28,6.25c-.09.47-.19,1-.29,1.5-2.46,12.69-7.06,38.86-8.32,62.29Z"/><path class="cls-4" d="M406.57,289.69c3.93-21.4,9-52.68,9.28-54.51a.7.7,0,1,0-1.39-.22c-.07.45-5.33,32.92-9.34,54.73Z"/><path class="cls-5" d="M464.19,202.51s2,18.7-2.28,29.11-59.32,5-73.35-4.32c-5.76-3.84,6.5-39.3,6.5-39.3Z"/><path class="cls-4" d="M385.57,227.4a16.58,16.58,0,0,0,6.06-2.38,18.88,18.88,0,0,0,3.23-2.64c6.07-6.12,7.86-15.38,7.95-15.83a.71.71,0,0,0-1.4-.26c0,.11-1.88,9.73-8,15.56a16.7,16.7,0,0,1-2.51,2,14.63,14.63,0,0,1-3.46,1.65,12.9,12.9,0,0,1-1.54.41C385.77,226.37,385.67,226.87,385.57,227.4Z"/><path class="cls-4" d="M419.55,232.63a.69.69,0,0,0,.66.71h0a.69.69,0,0,0,.74-.64c.12-2.56.27-5.18.44-7.79,0-.46.05-.92.09-1.38.55-8.55,1.26-16.94,1.79-22.86,0-.48.09-.94.13-1.39.12-1.3.22-2.45.32-3.43l-1.41-.22c-.09,1-.2,2.14-.31,3.45-.05.45-.09.91-.13,1.39-.53,5.87-1.23,14.18-1.79,22.68l-.09,1.4C419.83,227.26,419.67,230,419.55,232.63Z"/><path class="cls-4" d="M417.53,223.61a18,18,0,0,0,2.47.94,13.61,13.61,0,0,0,1.4.36,10,10,0,0,0,1.34.17,4.86,4.86,0,0,0,2.37-.37,2.93,2.93,0,0,0,1.61-2.16c.51-2.63,1.59-13.52,2.31-21.22.05-.47.09-.93.14-1.38.11-1.23.21-2.35.3-3.3l-1.4-.18c-.09,1-.2,2.09-.31,3.34-.05.44-.09.91-.13,1.38-.73,7.68-1.81,18.55-2.31,21.1a1.53,1.53,0,0,1-.85,1.2,5,5,0,0,1-3,0c-.48-.11-.95-.24-1.4-.38a16.89,16.89,0,0,1-1.93-.76.72.72,0,0,0-1,.3A.68.68,0,0,0,417.53,223.61Z"/><path class="cls-5" d="M457.34,289.69c2.18-19.92,4.7-46.58,6.13-62,0-.49.08-.95.13-1.42l1-11.1c-3.38-1.41-9.51-.44-16,1.41-.47.13-.94.26-1.41.41a194.36,194.36,0,0,0-23.87,9.33v63.4Z"/><path class="cls-4" d="M454,289.69c1.88-22.15,4.11-54.15,4.14-54.57a.71.71,0,1,0-1.41-.1c0,.42-2.27,32.54-4.15,54.67Z"/><path class="cls-4" d="M443.26,206.55A36.91,36.91,0,0,0,447.17,217a22.81,22.81,0,0,0,7.27,8.06,16.56,16.56,0,0,0,9,2.64c0-.49.08-.95.13-1.42a15.17,15.17,0,0,1-8.4-2.41,21.15,21.15,0,0,1-6.62-7.28,36.87,36.87,0,0,1-3.93-10.26.71.71,0,1,0-1.39.26Z"/><path class="cls-12" d="M386.63,201.33c15.24,14.23,51.28,21.8,79.07,8.27,3.05-8.33,6.4-38.06,7.3-46.94.18-1.77.32-3.54.44-5.31a233.93,233.93,0,0,0,0-26.09c0-.49-.05-1-.07-1.47-.37-7.39-.91-15-1.42-23.19-1-16.1-6.39-26-15.73-27.51A38,38,0,0,1,445.94,76l-.89-.44a28.94,28.94,0,0,1-4.71-2.91H419.51A16.05,16.05,0,0,1,413,78.05l-.81.37c-7.4,3.19-16,2.55-17.8,11.47-1.11,5.6,3.17,17.11,2.72,40.46,0,1.72-.09,3.49-.17,5.34s-.19,3.5-.33,5.35-.28,3.48-.46,5.3c-.16,1.6-.34,3.23-.54,4.91s-.44,3.48-.7,5.29C393.54,166.24,389.82,188.85,386.63,201.33Z"/><path class="cls-13" d="M458,206.2l-.17,0a.64.64,0,0,1-.44-.77c11.57-42.42,9.24-85.54,9.21-86a.63.63,0,0,1,1.25-.07c0,.43,2.37,43.75-9.25,86.37A.64.64,0,0,1,458,206.2Z"/><path class="cls-13" d="M395.24,151.11a.68.68,0,0,0,.67-.6c1.38-12.27,1.4-36.68,1.4-36.92a.67.67,0,0,0-1.34,0c0,.24,0,24.58-1.4,36.77a.67.67,0,0,0,.6.74Z"/><path class="cls-13" d="M423.78,197.31a1.57,1.57,0,1,0,3.13-.27,1.58,1.58,0,0,0-1.7-1.43A1.56,1.56,0,0,0,423.78,197.31Z"/><path class="cls-13" d="M423.53,204.91a1.57,1.57,0,1,0,1.43-1.7A1.57,1.57,0,0,0,423.53,204.91Z"/><path class="cls-13" d="M405.19,121.33c-4.09-4.74-2.56-15.32-2.49-15.76a.68.68,0,0,1,.66-.58h13.87a.68.68,0,0,1,.67.58c.06.44,1.6,11-2.49,15.76a6.87,6.87,0,0,1-10.22,0Zm-1.24-15c-.25,2.23-.93,10.42,2.25,14.12a5.54,5.54,0,0,0,8.19,0c3.19-3.7,2.51-11.89,2.25-14.12Z"/><path class="cls-5" d="M442.22,21.27c-3.89-2.51-16.11-3.78-16.11-3.78s-2-5.28-4.28-6.79c-5.15-3.43-5.78,3.52-5.78,3.52s-5-7-9.57-5,1.26,8.56,1.26,8.56-6.79-1.26-6,4.53,7.3,8.3,7.3,8.3a12.74,12.74,0,0,0-1,8.56c1,5.28,3.27,5.53,3.27,5.53l28.19,2.52s5.79,0,7.3-7.3-3.53-10.32-3.53-10.32S446.5,24,442.22,21.27Z"/><path class="cls-10" d="M419.19,69.08v5.3a16.81,16.81,0,0,0,1.88,1.31c9.19,5.52,19.11-1.31,19.11-1.31V56L421.7,67.53Z"/><path class="cls-5" d="M419.19,68.93v5.45a16.81,16.81,0,0,0,1.88,1.31c7.83-3.1,13.52-11.31,13.52-11.31L421.7,67.53Z"/><path class="cls-12" d="M440.13,69A10.49,10.49,0,0,1,448,77.12c-6,6.3-11.36,11.77-20,13.37V77.82A22.28,22.28,0,0,0,440.13,69Z"/><path class="cls-12" d="M419,70.83s-5.53,1.19-7.67,8.26c5.57,6.77,8.54,9.33,16.71,11.4V77.82S423.49,77.75,419,70.83Z"/><polygon class="cls-5" points="415.89 169.28 419.47 177.93 419.47 177.93 421.08 181.82 425.62 192.79 427.81 188.56 428.59 187.06 430.36 183.66 431.13 182.16 432.89 178.76 433.67 177.25 435.43 173.86 435.43 173.85 436.21 172.35 437.86 169.16 437.83 168.81 437.57 166.28 436.98 160.53 436.73 158 436.14 152.25 435.88 149.72 435.3 143.97 435.04 141.44 434.45 135.69 434.2 133.16 433.61 127.41 433.35 124.88 432.77 119.13 432.51 116.59 431.93 110.85 431.67 108.31 431.08 102.57 430.82 100.03 430.22 94.09 425.83 93.92 425.7 94.91 425.44 96.92 424.83 101.48 424.57 103.49 423.97 108.05 423.7 110.06 423.1 114.62 422.83 116.63 422.23 121.19 421.97 123.2 421.37 127.76 421.1 129.78 420.5 134.33 420.23 136.34 419.63 140.9 419.37 142.92 418.76 147.47 418.5 149.49 417.9 154.04 417.63 156.06 417.03 160.62 416.76 162.63 416.16 167.19 415.9 169.2 415.89 169.28"/><polygon class="cls-4" points="425.44 96.92 431.08 102.57 430.82 100.03 425.7 94.91 425.44 96.92"/><polygon class="cls-4" points="424.57 103.49 431.93 110.85 431.67 108.31 424.83 101.48 424.57 103.49"/><polygon class="cls-4" points="423.7 110.06 432.77 119.13 432.51 116.59 423.97 108.05 423.7 110.06"/><polygon class="cls-4" points="422.83 116.63 433.61 127.41 433.35 124.88 423.1 114.62 422.83 116.63"/><polygon class="cls-4" points="421.97 123.2 434.45 135.69 434.2 133.16 422.23 121.19 421.97 123.2"/><polygon class="cls-4" points="421.1 129.78 435.3 143.97 435.04 141.44 421.37 127.76 421.1 129.78"/><polygon class="cls-4" points="420.23 136.34 436.14 152.25 435.88 149.72 420.5 134.33 420.23 136.34"/><polygon class="cls-4" points="419.37 142.92 436.98 160.53 436.73 158 419.63 140.9 419.37 142.92"/><polygon class="cls-4" points="418.5 149.49 437.83 168.81 437.57 166.28 418.76 147.47 418.5 149.49"/><polygon class="cls-4" points="417.63 156.06 435.43 173.85 436.21 172.35 417.9 154.04 417.63 156.06"/><polygon class="cls-4" points="416.76 162.63 432.89 178.76 433.67 177.25 417.03 160.62 416.76 162.63"/><polygon class="cls-4" points="415.9 169.2 430.36 183.66 431.13 182.16 416.16 167.19 415.9 169.2"/><polygon class="cls-4" points="419.47 177.93 421.08 181.82 427.81 188.56 428.59 187.06 419.47 177.93"/><polygon class="cls-4" points="430.22 94.09 428.04 97.34 425.83 93.92 425.45 96.84 428 99.44 430.45 96.36 430.22 94.09"/><polygon class="cls-5" points="433.89 88.64 428.04 97.34 422.43 88.64 428.04 81.37 433.89 88.64"/><path class="cls-13" d="M437.29,94.59a.68.68,0,0,0,.42-.14c5.8-4.63,10.74-16.57,10.94-17.08a.66.66,0,0,0-.36-.87.67.67,0,0,0-.88.36c-.05.12-4.69,11.37-10,16.09l-8.82-12a.68.68,0,0,0-1.09,0l-8.22,11.68c-1.26-2.27-4.56-8.29-7.34-13.87a.67.67,0,1,0-1.2.59c3.5,7.05,7.84,14.79,7.88,14.87a.68.68,0,0,0,.55.34.67.67,0,0,0,.59-.28l8.3-11.79,8.69,11.8a.71.71,0,0,0,.46.27Z"/><path class="cls-13" d="M428.05,82a.67.67,0,0,0,.67-.67v-3a.67.67,0,0,0-1.34,0v3A.67.67,0,0,0,428.05,82Z"/><path class="cls-11" d="M412.58,45.62s-3-3.55-4.71,0-.39,10.74,4.18,9.57Z"/><path class="cls-10" d="M409.37,58.08S409.35,69,420.74,69s19-8.91,19.43-9.32h0l.13-2.3L441,45.43l.34-6.38s1.45-11.5-9.47-13.59c-8-1.54-15.47-.21-19.24,3.95l-.35.42a9.75,9.75,0,0,0-2.15,5.35l-.36,11.46-.08,2.81Z"/><path class="cls-5" d="M422.44,38.42s4.78,3.56,7.62,1.29-3.78-4.74-5.95-4.55S421,37.61,422.44,38.42Z"/><path class="cls-5" d="M417.24,38.42s-4.77,3.56-7.62,1.29,3.78-4.74,6-4.55S418.66,37.61,417.24,38.42Z"/><path class="cls-11" d="M421,59.51a4.74,4.74,0,0,0,3.25-1,.5.5,0,1,0-.65-.76,3.47,3.47,0,0,1-3.5.54.52.52,0,0,0-.67.26.51.51,0,0,0,.26.66A3.94,3.94,0,0,0,421,59.51Z"/><path class="cls-3" d="M425.94,51.69s-6.94,1.4-10.45,1.09c0,0,1.3,5.17,6.47,3.86A5.16,5.16,0,0,0,425.94,51.69Z"/><path class="cls-5" d="M412.23,29.83c1.78-.64,3.07,0,5.86,1.18,4,1.76,8.52.17,12.49-1.86s6.36.8,5,2.65-1.21,3.36.29,5.72S433,41,435.44,42.84a2.46,2.46,0,0,1,.54,3,1.64,1.64,0,0,0,1.85,2.17h0c1.29-.33,3.12-2.62,3.12-2.62l.34-6.38s1.45-11.5-9.47-13.59c-8-1.54-15.47-.21-19.24,3.95Z"/><path class="cls-11" d="M424.57,48.05c0,.8,1.65,1.45,3.67,1.45s3.67-.65,3.67-1.45-1.64-1.44-3.67-1.44S424.57,47.26,424.57,48.05Z"/><path class="cls-11" d="M409.64,49.45a8.33,8.33,0,0,0,.88,0c2,0,3.66-.65,3.66-1.45s-1.64-1.44-3.66-1.44c-.27,0-.54,0-.8,0Z"/><path class="cls-5" d="M423,43.67c0,1.09.49,2,1.11,2s1.1-.89,1.1-2-.49-2-1.1-2S423,42.57,423,43.67Z"/><path class="cls-5" d="M412,43.67c0,1.09.49,2,1.11,2s1.1-.89,1.1-2-.49-2-1.1-2S412,42.57,412,43.67Z"/><path class="cls-5" d="M436.61,55.24c.05.12,1.49,3.46,3.56,4.44h0l.12-2.3A7.88,7.88,0,0,1,436.61,55.24Z"/><path class="cls-10" d="M438.61,47.64s4.38-5.88,7.58-1.26c2.65,3.8-2.35,13.73-7.58,10.33Z"/><path class="cls-5" d="M439.21,54.94a.45.45,0,0,0,.45-.41A7.51,7.51,0,0,1,444,48.47a.45.45,0,0,0-.34-.84,8.44,8.44,0,0,0-4.93,6.81.44.44,0,0,0,.4.49Z"/><path class="cls-5" d="M443.41,52.21a.46.46,0,0,0,.35-.17.45.45,0,0,0-.06-.63c-.18-.15-1.8-1.42-3.15-1.08a.45.45,0,0,0,.22.88c.78-.2,2,.58,2.36.9A.48.48,0,0,0,443.41,52.21Z"/><path class="cls-5" d="M419.43,49.18a.45.45,0,0,0,.45-.45.45.45,0,0,0-.45-.45A3.11,3.11,0,0,1,416.74,47c1.8-3.7,3.59-7.43,3.6-7.47a.44.44,0,0,0-.21-.6.45.45,0,0,0-.6.21s-1.87,3.91-3.7,7.69a.42.42,0,0,0,0,.38A3.82,3.82,0,0,0,419.43,49.18Z"/><path class="cls-10" d="M528.38,89.76s6.07,6.13,12,3.74c4.84-1.93,5.91-8.65,6.14-11.17.06-.6.06-1,.06-1a7.63,7.63,0,0,0,.79-.52c1.06-.77,2.82-2.35,2.62-4.2C549.77,74,545,75.48,545,75.48s.72-3.19-.69-4.13-4.25.71-4.25.71,1.54-3.91-.57-4.85c-3.19-1.42-4.25,3.38-4.38,3.7,0-.35,1.55-15.07-1-14.32-2.21.66-4.24,13-4.75,16.32-.09.53-.13.83-.13.83h-.47c-1.42,0-5.6.41-6.36,3.32C521.47,80.58,528.38,89.76,528.38,89.76Z"/><path class="cls-11" d="M540.79,79.36a5.29,5.29,0,0,0-.53,3.26,1.55,1.55,0,0,0,1,1.12,2.8,2.8,0,0,0,1.33,0,15.75,15.75,0,0,0,3.94-1.43c.06-.6.06-1,.06-1a6.54,6.54,0,0,0,.79-.52.52.52,0,0,0-.27.07c-1.63.89-4.57,2.19-5.55,1.88a.6.6,0,0,1-.38-.45c-.27-1,.46-3,1.49-4.24a.49.49,0,0,0-.66-.72c-1,.73-3.87,2.51-5.3,2.06-.21-.07-.23-.16-.25-.22a1.66,1.66,0,0,1,.22-1,12.33,12.33,0,0,1,1.76-2.61.49.49,0,0,0-.05-.7.49.49,0,0,0-.7,0,13.14,13.14,0,0,0-1.79,2.58,4.13,4.13,0,0,0-.42,1.24,1.81,1.81,0,0,0,0,.7,1.3,1.3,0,0,0,.91.9C537.71,80.8,539.46,80.08,540.79,79.36Z"/><path class="cls-11" d="M533.19,75.17a.49.49,0,0,1,.35.43,3.17,3.17,0,0,0,.44,1.54.58.58,0,0,0,.51.29,2,2,0,0,0,.82-.3A15,15,0,0,0,538,74.92a.47.47,0,0,1-.12.27,12.33,12.33,0,0,0-1.76,2.61,2.38,2.38,0,0,1-.3.18,3.61,3.61,0,0,1-.9.39,1.6,1.6,0,0,1-1.72-.65,4.11,4.11,0,0,1-.62-2,.48.48,0,0,1,.62-.5Z"/><path class="cls-11" d="M526.07,80.74a16.08,16.08,0,0,0,3.93-.1,5.72,5.72,0,0,0,2.74-1.11,2.52,2.52,0,0,0,.88-1.87c0-2.64-2.65-4.11-4.26-4.75-.09.53-.13.83-.13.83h-.47c1.36.51,3.91,1.75,3.86,3.89a1.47,1.47,0,0,1-.54,1.14c-1.32,1.17-4.71,1.1-5.91,1a.49.49,0,0,0-.54.44A.5.5,0,0,0,526.07,80.74Z"/><path class="cls-11" d="M536.73,90.23a.51.51,0,0,0,.39-.31.49.49,0,0,0-.29-.64,4.5,4.5,0,0,1-2.78-2.6c-1.17-3.07,1-7.34,1.05-7.38a.5.5,0,0,0-.88-.46c-.1.19-2.42,4.71-1.09,8.2a5.44,5.44,0,0,0,3.35,3.17A.43.43,0,0,0,536.73,90.23Z"/><path class="cls-12" d="M463,82.62l10.36,9c1.66,1.54,3.32,3.08,5,4.6s3.32,3.06,5,4.56,3.33,3,5,4.45,3.33,2.89,5,4.26,3.29,2.71,4.83,3.85c.76.57,1.51,1.09,2.11,1.48l.4.26.16.1.06,0,.13.14c.05.07.05.12.11.18a.77.77,0,0,0,.52.08,8,8,0,0,0,2.9-1.13,25.12,25.12,0,0,0,4-3,51.24,51.24,0,0,0,4.09-4.11,100.43,100.43,0,0,0,7.72-10c2.47-3.55,4.2-6.29,6.43-10.07a16.62,16.62,0,0,0,15.1,5.78A134.26,134.26,0,0,1,536,106.64a105.08,105.08,0,0,1-7.69,13.06,67.81,67.81,0,0,1-5,6.35,47.12,47.12,0,0,1-6.5,6.06,32.15,32.15,0,0,1-4.23,2.75,27.69,27.69,0,0,1-5.25,2.19,24.45,24.45,0,0,1-6.33,1,23,23,0,0,1-6.71-.86,23.8,23.8,0,0,1-3.11-1.1l-.72-.33-.6-.29-.57-.29-.55-.29c-1.4-.76-2.6-1.49-3.75-2.22-2.28-1.45-4.33-2.89-6.34-4.35s-3.92-2.93-5.82-4.42-3.76-3-5.59-4.49-3.64-3-5.44-4.57-3.56-3.09-5.32-4.65-3.51-3.14-5.24-4.73l-2.58-2.4-1.29-1.22-1.3-1.25Z"/><path class="cls-13" d="M472.85,125.13a.6.6,0,0,1-.36-.12c-6.84-4.78-19-14.87-19.13-15a.62.62,0,1,1,.8-1c.12.1,12.25,10.16,19,14.92a.63.63,0,0,1-.36,1.14Z"/><path class="cls-13" d="M458.7,114.21h-.09l-4.82-.7a.63.63,0,1,1,.18-1.24l4.82.7a.62.62,0,0,1,.52.71A.61.61,0,0,1,458.7,114.21Z"/><path class="cls-13" d="M538.45,100.94a.64.64,0,0,0,.33-.7.63.63,0,0,0-.76-.48c-9.07,2-13.59-6.68-13.64-6.77a.63.63,0,0,0-.85-.28h0a.64.64,0,0,0-.27.86c0,.09,5,9.61,15,7.43A.44.44,0,0,0,538.45,100.94Z"/><path class="cls-13" d="M533.79,101.11a.67.67,0,0,0,.29-.31l3-7a.65.65,0,0,0-.34-.84.62.62,0,0,0-.83.34l-3,7a.64.64,0,0,0,.33.84A.66.66,0,0,0,533.79,101.11Z"/><path class="cls-13" d="M528.44,94.4a1.1,1.1,0,1,0,.47-1.49A1.1,1.1,0,0,0,528.44,94.4Z"/><path class="cls-13" d="M499.63,123.39a.65.65,0,0,0,.34-.46,27.35,27.35,0,0,1,1.86-6.34.64.64,0,0,0-1.14-.58,28.54,28.54,0,0,0-2,6.71.64.64,0,0,0,.53.73A.57.57,0,0,0,499.63,123.39Z"/><path class="cls-13" d="M503.77,122l.11-.08a.64.64,0,0,0,.08-.9,11.7,11.7,0,0,1-2.21-4.23.64.64,0,1,0-1.25.25,12.84,12.84,0,0,0,2.49,4.8A.65.65,0,0,0,503.77,122Z"/></g><ellipse class="cls-2" cx="144.84" cy="395.64" rx="144.84" ry="8.81"/><path class="cls-10" d="M135.8,150.3l14.64,53.5-5.22-6a27,27,0,0,0,6.64,2.37,47.1,47.1,0,0,0,8,1c2.83.15,5.77.12,8.77,0s6.08-.35,9.2-.62h0a8.36,8.36,0,0,1,2,16.59c-3.21.51-6.48,1-9.84,1.39s-6.8.67-10.36.76a67.84,67.84,0,0,1-11.07-.61A46.49,46.49,0,0,1,137,215.48a9.13,9.13,0,0,1-5-5.46l-.19-.56-17.55-52.61a11.28,11.28,0,1,1,21.41-7.14C135.69,149.9,135.75,150.12,135.8,150.3Z"/><path class="cls-13" d="M141.44,344.24a2.17,2.17,0,0,1-.66-.11L64.14,316.49a1.93,1.93,0,0,1,1.31-3.63l76.64,27.63a1.93,1.93,0,0,1-.65,3.75Z"/><path class="cls-13" d="M61.61,344.24a1.93,1.93,0,0,1-.66-3.75l77.56-28.09a1.93,1.93,0,0,1,1.31,3.64L62.27,344.12A1.92,1.92,0,0,1,61.61,344.24Z"/><path class="cls-12" d="M148.25,393.62a3.3,3.3,0,0,1-3.27-2.87L131.14,287.39H73.21L59.58,390.75a3.31,3.31,0,1,1-6.56-.87L67,283.65a3.31,3.31,0,0,1,3.28-2.88H134a3.31,3.31,0,0,1,3.28,2.87l14.23,106.24a3.3,3.3,0,0,1-2.84,3.71A3.4,3.4,0,0,1,148.25,393.62Z"/><path class="cls-12" d="M115.57,284.08H74.19C61.07,284.08,47,276.9,45,264a246.1,246.1,0,0,1-2.61-49.5A60.26,60.26,0,0,1,65.27,170h0s8.26,36-2.13,85.75C67.11,274.69,115.57,284.08,115.57,284.08Z"/><path class="cls-5" d="M107,72.77S102,60.91,89,63.15c-9.1,1.56-13,12.9-12.44,30.41.78,25.49-7.84,40.85-7.84,40.85L80.16,137S109.29,93.32,107,72.77Z"/><path class="cls-5" d="M211.33,349.33H192.84s-4.28-20.52-5.71-32S185,278.52,185,278.52s-14.74,4.79-45.57,3C71.05,277.51,97,227.31,97,227.31c2.31,3.19,16.45,1,26.12,2.5,29.67,2.85,55.39,14.49,70.83,21.16a76.83,76.83,0,0,1,9.92,5.08c3.73,2.3,6.05,9.26,7.46,18.41C215.5,302,211.33,349.33,211.33,349.33Z"/><path class="cls-4" d="M195.13,339.45a.67.67,0,0,1-.65-.54c-2.66-13.2-3.56-29.63-4.28-42.83-.59-10.94-1.16-21.28-2.56-22.52-1.14-1-5.87-.23-11.86.77-11.91,2-29.9,5-49.75.35-10.81-2.52-18.76-7.77-23.62-15.61-8.39-13.53-4.57-30.29-4.53-30.46a.67.67,0,0,1,.8-.49.65.65,0,0,1,.49.8c0,.16-3.73,16.41,4.37,29.46,4.67,7.53,12.34,12.57,22.79,15,19.59,4.55,37.43,1.59,49.24-.37,7.07-1.17,11.33-1.88,12.94-.46s2.23,9.1,3,23.45c.71,13.16,1.61,29.54,4.25,42.64a.66.66,0,0,1-.52.78Z"/><path class="cls-4" d="M211.68,339.79h0l-20.55-.44a.66.66,0,1,1,0-1.32l20.55.44a.66.66,0,0,1,0,1.32Z"/><polygon class="cls-10" points="210.82 373.02 197.77 373.02 195.25 357.71 193.88 349.33 210.09 349.33 210.35 357.71 210.82 373.02"/><polygon class="cls-12" points="210.82 373.02 197.77 373.02 195.9 361.62 195.25 357.71 210.35 357.71 210.47 361.76 210.82 373.02"/><polygon class="cls-13" points="210.47 361.76 195.9 361.62 195.25 357.71 210.35 357.71 210.47 361.76"/><path class="cls-14" d="M243,393.62H193.66a7,7,0,0,1-.64-2.74c-.31-4.17,1-10.83,1.67-15,.08-.49.15-1,.2-1.37a14.66,14.66,0,0,0,.15-1.71c0-3.43,3-2.84,3-2.84,5,4.89,10.65-2.45,14,0l.44.33c.28.22.7.56,1.28,1,.84.71,2,1.73,3.62,3.16,3.92,3.53,10.58,5.86,16.26,8.23q1.08.45,2,.9c.48.23.92.46,1.34.69,4.64,2.5,6.12,4.89,6.45,6.63A3.87,3.87,0,0,1,243,393.62Z"/><path class="cls-15" d="M237,384.25c-1.27,1-4.1,3-6.36,3h-.3c-1.6-.13-7.48-3-12.27-5.65-2.74-1.51-5.25-3-7-4.18-3-1.95-3.46-2.69-3.58-3.21-.43-2,2.79-3.3,5.05-4,.28.22.7.56,1.28,1-2.8.77-5.11,2-5,2.65.27.58,3.2,2.8,10.18,6.62,5.33,2.92,10.38,5.28,11.5,5.37,1.52.13,3.76-1.26,5.21-2.35C236.11,383.79,236.55,384,237,384.25Z"/><path class="cls-15" d="M243,393.62H193.66a7.11,7.11,0,0,1-.65-2.74h50.41A3.87,3.87,0,0,1,243,393.62Z"/><path class="cls-15" d="M198.7,393.62h-1.47a10.78,10.78,0,0,0,2.66-7.9,13.93,13.93,0,0,0-5.2-9.87c.08-.49.15-1,.2-1.37a15.14,15.14,0,0,1,6.17,11.18A12,12,0,0,1,198.7,393.62Z"/><path class="cls-3" d="M216.52,377.34a.8.8,0,0,1-.78-.61.81.81,0,0,1,.59-1l3.08-.76a.81.81,0,1,1,.39,1.58l-3.08.76A.65.65,0,0,1,216.52,377.34Z"/><path class="cls-3" d="M213.46,374.78a.82.82,0,0,1-.79-.62.8.8,0,0,1,.6-1l3.08-.77a.81.81,0,0,1,.39,1.58l-3.08.76A.69.69,0,0,1,213.46,374.78Z"/><path class="cls-3" d="M219.61,379.14a.82.82,0,0,1-.2-1.61l3.09-.76a.81.81,0,0,1,.39,1.58l-3.09.76A.63.63,0,0,1,219.61,379.14Z"/><path class="cls-3" d="M222.69,380.86a.82.82,0,0,1-.79-.62.81.81,0,0,1,.6-1l3.08-.77a.81.81,0,0,1,.39,1.58l-3.08.77Z"/><path class="cls-3" d="M226.05,382.45a.81.81,0,0,1-.19-1.6l3.08-.77a.81.81,0,0,1,.39,1.58l-3.08.77Z"/><path class="cls-3" d="M229.7,383.81a.81.81,0,0,1-.2-1.6l3.08-.77A.81.81,0,0,1,233,383l-3.09.77Z"/><path class="cls-15" d="M62.74,211.4s-.59,4,4.75,5.11l55.68,1.85a6.27,6.27,0,0,0,3.08-6.55S102.74,198.61,62.74,211.4Z"/><path class="cls-10" d="M123.93,229.81c-28.9,15.9-60.46,3.1-60.46,3.1A87,87,0,0,0,67,219.63c1-5,1.51-9.47,1.75-11.8,12.3-.68,42.43-2,54.24.84l.09,4.73Z"/><path class="cls-11" d="M102.58,222.19c-.21,1.49-.88,2.62-1.5,2.54s-.94-1.37-.73-2.86.89-2.63,1.5-2.54S102.8,220.7,102.58,222.19Z"/><path class="cls-11" d="M123.07,213.4c-12.31-.75-36.52-1-56.08,6.23,1-5,1.51-9.47,1.75-11.8,12.3-.68,42.43-2,54.24.84Z"/><path class="cls-14" d="M136.8,190.54a9.07,9.07,0,0,1-.41,1l-.19.35a27.32,27.32,0,0,1-5.95,7.13c-.42.37-.82.7-1.19,1-.74.6-1.37,1.06-1.8,1.37s-.63.44-.63.44,0,0,0,.08c0,.22,0,.44-.06.68-.07.91-.13,2-.17,3.23,0,1-.07,2.08-.1,3.26,0,.86,0,1.77,0,2.72-16.33-7.3-50-2.69-63.51-.41.24-1.17.47-2.32.68-3.44a107.6,107.6,0,0,0,1.71-14,147,147,0,0,0-1.54-25.16c-.08-.62-.17-1.24-.26-1.87-.06-.41-.12-.81-.19-1.22-.46-3-1-6-1.61-9-2.67-12.81-.8-26.27,12.2-27.86.94-.11,1.87-.22,2.77-.31,6.13-.66,11.16-.88,12.56-.94h.39l25.12,7.3,2.39.69c1.37.44,2.64.87,3.82,1.28l1.45.54c1.22.45,2.32.9,3.33,1.34a27.59,27.59,0,0,1,4.86,2.66c5.51,3.91,4.66,8.33,4.52,17.06,0,0,0,.08,0,.12v.48c0,.36,0,.71,0,1.07,0,1.13,0,2.25.11,3.37.1,1.65.24,3.29.42,4.89.07.65.15,1.29.23,1.92s.15,1.19.22,1.78C136.92,179.76,138.17,186.46,136.8,190.54Z"/><path class="cls-15" d="M134.93,158.61v.48c0,.36,0,.71,0,1.07l-5.28,3.31a.74.74,0,0,1-.52.11.75.75,0,0,1-.5-.34.73.73,0,0,1,.24-1l5.59-3.52A.72.72,0,0,1,134.93,158.61Z"/><path class="cls-15" d="M100.13,186.88a.73.73,0,0,1-.55-.25.74.74,0,0,1,.06-1l4.91-4.42a.74.74,0,0,1,1,1.1l-4.92,4.42A.7.7,0,0,1,100.13,186.88Z"/><path class="cls-15" d="M135.91,172.12l-3.36,3a.72.72,0,0,1-.49.19.7.7,0,0,1-.55-.25.74.74,0,0,1,.05-1l4.13-3.71C135.76,170.94,135.84,171.53,135.91,172.12Z"/><path class="cls-15" d="M90.17,169.11a.76.76,0,0,1-.11-.59A.73.73,0,0,1,91,168l6.43,1.51a.75.75,0,0,1,.55.89.74.74,0,0,1-.89.55l-6.43-1.52A.72.72,0,0,1,90.17,169.11Z"/><path class="cls-15" d="M67.23,181.72a.72.72,0,0,1-.55-.24.74.74,0,0,1,0-1L71.64,176a.74.74,0,0,1,1,1.09l-4.91,4.42A.72.72,0,0,1,67.23,181.72Z"/><path class="cls-15" d="M124.39,180.67a.73.73,0,0,1,1.37-.06l2.64,6.06a.73.73,0,1,1-1.35.58l-2.64-6.05A.75.75,0,0,1,124.39,180.67Z"/><path class="cls-15" d="M136.8,190.54a9.07,9.07,0,0,1-.41,1l-.19.35-3.59-1.13a.74.74,0,0,1-.48-.92.73.73,0,0,1,.93-.48Z"/><path class="cls-15" d="M116.52,191.07a.75.75,0,0,1,.57.18.74.74,0,0,1,0,1l-4.44,4.9a.74.74,0,1,1-1.09-1l4.44-4.9A.7.7,0,0,1,116.52,191.07Z"/><path class="cls-15" d="M113.91,179.78a.72.72,0,0,1-.5-.33.74.74,0,0,1,.23-1l5.6-3.51a.74.74,0,0,1,.78,1.25l-5.6,3.51A.72.72,0,0,1,113.91,179.78Z"/><path class="cls-15" d="M117.47,158.5a.71.71,0,0,1,.18.58.73.73,0,0,1-.81.65l-6.57-.72a.73.73,0,0,1,.16-1.46l6.57.71A.74.74,0,0,1,117.47,158.5Z"/><path class="cls-15" d="M107.92,144.26a.74.74,0,0,1,1.37-.18l3.12,5.82a.74.74,0,0,1-1.3.7L108,144.78A.74.74,0,0,1,107.92,144.26Z"/><path class="cls-15" d="M130.25,199c-.42.37-.82.7-1.19,1l-.86-2.2a.74.74,0,1,1,1.37-.54Z"/><path class="cls-15" d="M69.85,187.83a.74.74,0,0,1,.9-1L77,189a.74.74,0,0,1-.5,1.39l-6.22-2.24A.75.75,0,0,1,69.85,187.83Z"/><path class="cls-15" d="M72.9,196.23a.72.72,0,0,1,.54.25.73.73,0,0,1-.06,1l-4.95,4.38a.74.74,0,1,1-1-1.11l4.94-4.37A.75.75,0,0,1,72.9,196.23Z"/><path class="cls-15" d="M81.87,203.18a.74.74,0,0,1,.14.58.73.73,0,0,1-.85.61l-6.51-1.11a.74.74,0,0,1-.6-.85.75.75,0,0,1,.85-.61l6.51,1.11A.82.82,0,0,1,81.87,203.18Z"/><path class="cls-15" d="M87.31,141.32a.77.77,0,0,1,.09-.59.74.74,0,0,1,1-.22L94,144.09a.74.74,0,0,1-.8,1.24l-5.56-3.58A.79.79,0,0,1,87.31,141.32Z"/><path class="cls-15" d="M125.2,145.55a.71.71,0,0,1,.59-.05.73.73,0,0,1,.45.94L124,152.67a.73.73,0,0,1-.94.44.74.74,0,0,1-.45-.94l2.21-6.22A.73.73,0,0,1,125.2,145.55Z"/><path class="cls-15" d="M122.23,137.43l-3.41,4.37a.73.73,0,1,1-1.16-.9l3.12-4Z"/><path class="cls-15" d="M88.86,197.87a.59.59,0,0,0,.45.39.65.65,0,0,0,.31,0,34.66,34.66,0,0,1,22,1.16,37.63,37.63,0,0,0,14.9,3.19c0-.24,0-.47.06-.68v-.08s.23-.15.63-.44a35.86,35.86,0,0,1-15.14-3.1,35.17,35.17,0,0,0-22.88-1.19A.6.6,0,0,0,88.86,197.87Z"/><path class="cls-15" d="M114.57,134.92c-1.41,2.18-4.31,4.65-10.19,4.22-8.11-.58-13.45-8.32-15.32-11.5l.39,0Z"/><path class="cls-3" d="M105.94,149.27a6,6,0,0,0,.72.11,6.25,6.25,0,0,0,5.4-1.94c3.9-4.26,2.3-14,2.23-14.38a.6.6,0,1,0-1.19.2c0,.09,1.58,9.55-1.93,13.37a5,5,0,0,1-4.41,1.55c-7.87-.63-16.67-20.6-16.76-20.8a.6.6,0,1,0-1.1.48C89.26,128.69,97.61,147.59,105.94,149.27Z"/><path class="cls-10" d="M130.42,141.43a43.79,43.79,0,0,0,4.62,22.1c-.09-1.47-.13-2.95-.11-4.44v-.15c0-.15,0-.3,0-.45C135.08,149.76,135.93,145.34,130.42,141.43Z"/><path class="cls-10" d="M84.22,151.57c-2.89,11.11-13.42,20-20.63,17.25-.08-.62-.17-1.24-.26-1.87-.06-.41-.12-.81-.19-1.22-.46-3-1-6-1.61-9-2.67-12.81-.8-26.27,12.19-27.86,1-.11,1.88-.22,2.78-.31C83,131.34,87.53,138.76,84.22,151.57Z"/><path class="cls-10" d="M85.7,143.09l16.89,61.74-6-6.94a30.84,30.84,0,0,0,7.66,2.73,54.82,54.82,0,0,0,9.23,1.19c3.25.16,6.65.14,10.11,0s7-.4,10.62-.71h0a9.65,9.65,0,0,1,2.34,19.14c-3.71.59-7.49,1.15-11.36,1.6s-7.85.79-12,.88a77.65,77.65,0,0,1-12.77-.7,53.31,53.31,0,0,1-13.41-3.71,10.49,10.49,0,0,1-5.8-6.3l-.22-.64L60.78,150.65a13,13,0,1,1,24.71-8.25C85.56,142.61,85.64,142.87,85.7,143.09Z"/><path class="cls-11" d="M93.26,202.85a.5.5,0,0,1-.44-.25.51.51,0,0,1,.19-.69,21.27,21.27,0,0,1,7.71-2.47.5.5,0,1,1,.08,1,20.5,20.5,0,0,0-7.3,2.34A.42.42,0,0,1,93.26,202.85Z"/><path class="cls-11" d="M99.39,200.62a.48.48,0,0,1-.26-.07A13,13,0,0,0,94,198.92a.5.5,0,1,1,.07-1,14.16,14.16,0,0,1,5.62,1.77.5.5,0,0,1-.26.93Z"/><path class="cls-15" d="M114.45,168.08c7.47,1.51,10.74-6.21,10.77-6.29a.6.6,0,1,0-1.11-.46c-.12.29-2.94,6.88-9.42,5.57-6.81-1.38-19.51-14.77-19.64-14.91a.6.6,0,0,0-.87.83C94.71,153.38,107.27,166.62,114.45,168.08Z"/><path class="cls-5" d="M102.7,119.45s-12-2.25-15.37-14.36c-3.22-11.52-.74-17.49,2.61-23.72,2.52-4.69,10.51-11,21.73-8.75s19.79,8.11,21,17.42C135.05,107.46,121,128.71,102.7,119.45Z"/><path class="cls-12" d="M87.9,107a.6.6,0,0,1-.54-.32,27.11,27.11,0,0,1-1.08-21.39A19.59,19.59,0,0,1,97.92,73a20.88,20.88,0,0,1,7.84-1.45.62.62,0,0,1,.59.66.61.61,0,0,1-.65.59h0a20.33,20.33,0,0,0-7.38,1.38A18.21,18.21,0,0,0,87.46,85.67a26.41,26.41,0,0,0,1,20.36.62.62,0,0,1-.23.85A.71.71,0,0,1,87.9,107Z"/><path class="cls-11" d="M126,107.16s3.9-3.09,4.93,1-1.87,11.33-6.41,9.13Z"/><path class="cls-12" d="M122.15,114.65a6.19,6.19,0,0,0-4.09,4.5,5.88,5.88,0,1,0,9.08-3.68,5.73,5.73,0,0,0-2.15-.91h-.06a1,1,0,0,0,.16,1,5,5,0,1,1-6.13,3.81,4.79,4.79,0,0,1,3.65-3.77Z"/><path class="cls-10" d="M114.14,124.64l-1.64,10.21s-7.65,7.81-21.62-6.19c3.75-2.8,5.19-9.27,4.75-13.46a21.32,21.32,0,0,1,2.8,2.2,10,10,0,0,0,1.17.82C103.29,120.73,109,124,114.14,124.64Z"/><path class="cls-5" d="M114.14,124.64l-.78,4.84c-4.19-1.87-11.6-5.86-14.93-12.08.36.26.75.54,1.17.82C103.29,120.73,109,124,114.14,124.64Z"/><path class="cls-10" d="M129.74,104.69l-.63,3.09c-.22,1.06-.43,2.06-.64,3-1.54,7.08-2.82,10.86-4.88,12.28-10.43,7.17-27.4-7.35-27.95-7.82h0c0-.83,0-1.66,0-2.47A63.84,63.84,0,0,1,98.79,94a14.39,14.39,0,0,1,12-12.18c6.46-1,11.32,2.76,14.36,4.42C129.74,88.73,131.53,95.68,129.74,104.69Z"/><path class="cls-5" d="M99.14,87.57s7.3-14,21.86-10.12,15.34,10.68,15.59,14.07-7.54-2.61-7.54-2.61-.26,6.76-2.86,4.68c-3.19-2.56-6.76-8.07-6.76-8.07s-8.67,8.52-16.91,6.22C97.84,90.43,99.14,87.57,99.14,87.57Z"/><path class="cls-11" d="M117,118.46a4.87,4.87,0,0,1-3.25-1.37.52.52,0,1,1,.74-.73,3.59,3.59,0,0,0,3.55.88.52.52,0,0,1,.66.33.51.51,0,0,1-.32.66A4.43,4.43,0,0,1,117,118.46Z"/><path class="cls-3" d="M112.67,110s7,2.08,10.67,2.08c0,0-1.83,5.21-7,3.38A5.34,5.34,0,0,1,112.67,110Z"/><path class="cls-5" d="M125.71,95.35s-1.83-.19-1.53,1.58,4.25.68,6.2,4.23C130.38,101.16,132.27,97.44,125.71,95.35Z"/><path class="cls-5" d="M117.6,93.7a1.31,1.31,0,0,1,.79,2.06c-1,1.51-4.18-1-7.36,1.47C111,97.23,110.73,93.08,117.6,93.7Z"/><path class="cls-11" d="M114.43,106.38c-.17.83-2,1.16-4.14.73s-3.7-1.46-3.53-2.29,2-1.16,4.14-.73S114.6,105.54,114.43,106.38Z"/><path class="cls-3" d="M135.16,106.93l-5.67-1a6,6,0,0,1-.15.71.36.36,0,0,1,0,.11l5.71,1a.43.43,0,0,0,.49-.35A.4.4,0,0,0,135.16,106.93Z"/><path class="cls-3" d="M120,102.08a8.11,8.11,0,0,0,0-.86,7.2,7.2,0,0,0-1.91-4.06,7.08,7.08,0,0,0-3.67-2.07l-.07,0a7.17,7.17,0,0,0-7.94,4,5.48,5.48,0,0,0-.3.8,5.59,5.59,0,0,0-.2.73,7.08,7.08,0,0,0,.92,5.2,6.55,6.55,0,0,0,1.13,1.39,7.08,7.08,0,0,0,3.5,1.86,7.15,7.15,0,0,0,8.44-5.55v0A6.92,6.92,0,0,0,120,102.08Zm-8.42,6.16-.1,0a6.29,6.29,0,0,1-4.79-7.41,5.67,5.67,0,0,1,.27-.94s0,0,0-.06a6.32,6.32,0,0,1,5.5-4,6.63,6.63,0,0,1,1.65.12,6.3,6.3,0,0,1-2.55,12.34Z"/><path class="cls-3" d="M132.72,99.16l-.59-.28c-.24-.1-.49-.18-.75-.26l-.53-.13a9.07,9.07,0,0,0-1-.14,7.85,7.85,0,0,0-1.19,0,7.17,7.17,0,0,0-3,1.05,7.08,7.08,0,0,0-2.44,2.54,5.78,5.78,0,0,0-.4.83s0,0,0,0a7.8,7.8,0,0,0-.36,1.19,7.15,7.15,0,0,0,2.63,7.1,7.29,7.29,0,0,0,2.32,1.19l.4.1.2,0a7.12,7.12,0,0,0,2,.12c.11,0,.21,0,.32,0,.29,0,.58-.1.87-.17a7.45,7.45,0,0,0,1.53-.59,7.15,7.15,0,0,0,0-12.65Zm2.85,7.6c0,.13-.06.27-.1.4a5.05,5.05,0,0,1-.18.55,6.33,6.33,0,0,1-2.58,3.13,6.72,6.72,0,0,1-1.36.63,5.63,5.63,0,0,1-.92.23l-.27,0a6.12,6.12,0,0,1-2-.08l-.19,0-.11,0a6.27,6.27,0,0,1-2.64-1.42c-.11-.1-.21-.2-.31-.31a6.25,6.25,0,0,1-1.64-5.64,6.67,6.67,0,0,1,.44-1.35,6.29,6.29,0,0,1,5.73-3.67h.46a5.66,5.66,0,0,1,.81.12l.58.14a7.05,7.05,0,0,1,.76.3,5.1,5.1,0,0,1,.57.29A6.32,6.32,0,0,1,135.57,106.76Z"/><path class="cls-3" d="M97.35,100.38a.47.47,0,0,1-.15-.06.42.42,0,0,1-.12-.58c2.84-4.44,9.66-.46,9.73-.42a.42.42,0,0,1-.43.73c-.06,0-6.19-3.61-8.59.14A.42.42,0,0,1,97.35,100.38Z"/><path class="cls-3" d="M123.09,103.05a.42.42,0,0,1-.27-.18c-.91-1.41-2.85-.78-2.87-.77a.44.44,0,0,1-.54-.27.42.42,0,0,1,.27-.53,3.35,3.35,0,0,1,3.85,1.11.41.41,0,0,1-.13.58A.43.43,0,0,1,123.09,103.05Z"/><g class="cls-16"><path class="cls-11" d="M129.11,107.78c-.22,1.06-.43,2.06-.64,3-1.93-.46-3.32-1.42-3.16-2.2S127.14,107.45,129.11,107.78Z"/></g><path class="cls-5" d="M115.92,102.18c-.23,1.15-.94,2-1.58,1.84s-1-1.16-.74-2.31.94-2,1.58-1.84S116.16,101,115.92,102.18Z"/><path class="cls-5" d="M127.26,104.48c-.23,1.15-.94,2-1.58,1.84s-1-1.16-.74-2.31.94-2,1.58-1.84S127.5,103.33,127.26,104.48Z"/><path class="cls-5" d="M121.41,107.56a4.31,4.31,0,0,0,1,.09.47.47,0,0,0,.45-.55l-.73-5.35a.48.48,0,1,0-.95.13l.65,4.77a3.76,3.76,0,0,1-1.85-.81.48.48,0,0,0-.61.74A4.71,4.71,0,0,0,121.41,107.56Z"/><path class="cls-5" d="M100.31,111.35c-.08.11-2.29,3.3-4.67,3.89h0c0-.84,0-1.66,0-2.47A9.05,9.05,0,0,0,100.31,111.35Z"/><path class="cls-10" d="M99.83,103s-3.34-7.08-7.68-2.93c-3.57,3.43-.45,14.88,5.75,12.43Z"/><path class="cls-12" d="M91.62,109.07a6.2,6.2,0,0,0-4.09,4.49A5.88,5.88,0,1,0,94.45,109h0a.94.94,0,0,0,.16,1,4.91,4.91,0,0,1,1.73.85,5,5,0,1,1-7.87,3A4.83,4.83,0,0,1,92.08,110Z"/><path class="cls-5" d="M97.65,110.48h0a.49.49,0,0,0,.53-.44,9,9,0,0,0-3.73-8.17.48.48,0,0,0-.52.81h0A8,8,0,0,1,97.27,110,.47.47,0,0,0,97.65,110.48Z"/><path class="cls-5" d="M93.83,106.73a.46.46,0,0,0,.32,0c.47-.25,1.88-.81,2.65-.44a.48.48,0,1,0,.42-.86c-1.34-.65-3.3.34-3.52.45a.48.48,0,0,0-.2.65A.49.49,0,0,0,93.83,106.73Z"/><path class="cls-5" d="M104.13,91s-4.49,12.19-4.73,14.64c-.34,3.35-4.77-8.12-.31-17.92Z"/><path class="cls-5" d="M179.14,349.4H160.66s-4.28-20.52-5.72-32-2.18-38.78-2.18-38.78-14.73,4.78-45.57,3c-68.33-4-42.42-54.19-42.42-54.19,2.31,3.18,19.63,7.58,29.29,9.1,29.67,2.85,52.22,7.89,67.66,14.55a77.49,77.49,0,0,1,9.92,5.08c3.72,2.3,6.05,9.26,7.45,18.42C183.31,302.05,179.14,349.4,179.14,349.4Z"/><path class="cls-4" d="M163,339.51a.66.66,0,0,1-.65-.53c-2.66-13.2-3.56-29.63-4.28-42.83-.6-10.95-1.16-21.29-2.57-22.53-1.13-1-5.86-.22-11.85.77-11.91,2-29.91,5-49.75.35C83,272.22,75.09,267,70.22,259.13c-8.38-13.52-4.56-30.29-4.52-30.45A.66.66,0,1,1,67,229c0,.16-3.73,16.41,4.37,29.46C76,266,83.7,271,94.15,273.45c19.59,4.56,37.43,1.6,49.23-.36,7.07-1.18,11.34-1.89,13-.46s2.23,9.1,3,23.45c.72,13.15,1.61,29.53,4.26,42.64a.67.67,0,0,1-.52.78Z"/><path class="cls-4" d="M179.5,339.86h0l-20.56-.45a.66.66,0,0,1,0-1.32l20.56.44a.66.66,0,0,1,.65.68A.67.67,0,0,1,179.5,339.86Z"/><polygon class="cls-10" points="178.63 373.08 165.59 373.08 163.07 357.77 161.7 349.4 177.91 349.4 178.16 357.77 178.63 373.08"/><polygon class="cls-12" points="178.63 373.08 165.59 373.08 163.71 361.68 163.07 357.77 178.16 357.77 178.29 361.83 178.63 373.08"/><polygon class="cls-13" points="178.29 361.83 163.71 361.68 163.07 357.77 178.16 357.77 178.29 361.83"/><path class="cls-14" d="M210.83,393.69H161.48a6.81,6.81,0,0,1-.65-2.74c-.31-4.18,1-10.84,1.68-15,.08-.49.14-1,.2-1.36a14.6,14.6,0,0,0,.14-1.72c0-3.43,3-2.84,3-2.84,5,4.9,10.65-2.45,14,0l.43.34c.28.22.7.55,1.29,1,.84.7,2,1.72,3.62,3.16,3.91,3.52,10.58,5.85,16.25,8.22.73.3,1.4.61,2,.91s.92.45,1.34.68c4.64,2.51,6.11,4.9,6.45,6.64A3.84,3.84,0,0,1,210.83,393.69Z"/><path class="cls-15" d="M204.79,384.31c-1.27,1-4.1,3-6.37,3h-.29c-1.61-.14-7.49-3-12.27-5.66-2.74-1.51-5.25-3-7.05-4.18-2.95-1.95-3.47-2.69-3.58-3.21-.43-1.94,2.79-3.3,5-4,.28.22.7.55,1.29,1-2.81.76-5.11,2-5,2.64.27.58,3.19,2.81,10.18,6.63,5.32,2.91,10.38,5.27,11.5,5.37,1.52.12,3.75-1.26,5.21-2.35C203.92,383.85,204.37,384.08,204.79,384.31Z"/><path class="cls-15" d="M210.83,393.69H161.48a6.81,6.81,0,0,1-.65-2.74h50.41A3.84,3.84,0,0,1,210.83,393.69Z"/><path class="cls-15" d="M166.52,393.69h-1.47a10.84,10.84,0,0,0,2.65-7.9,13.93,13.93,0,0,0-5.19-9.88c.08-.49.14-1,.2-1.36a15.12,15.12,0,0,1,6.17,11.18A12,12,0,0,1,166.52,393.69Z"/><path class="cls-3" d="M184.34,377.41a.82.82,0,0,1-.79-.62.81.81,0,0,1,.6-1l3.08-.77a.81.81,0,0,1,.39,1.58l-3.08.76A.69.69,0,0,1,184.34,377.41Z"/><path class="cls-3" d="M181.28,374.84a.81.81,0,0,1-.2-1.6l3.09-.77a.81.81,0,0,1,.39,1.58l-3.09.77Z"/><path class="cls-3" d="M187.42,379.2a.81.81,0,0,1-.19-1.6l3.08-.77a.81.81,0,1,1,.39,1.58l-3.08.77Z"/><path class="cls-3" d="M190.51,380.92a.8.8,0,0,1-.79-.61.82.82,0,0,1,.59-1l3.08-.77a.82.82,0,0,1,1,.6.81.81,0,0,1-.59,1l-3.09.77A.62.62,0,0,1,190.51,380.92Z"/><path class="cls-3" d="M193.87,382.52a.82.82,0,0,1-.2-1.61l3.09-.76a.81.81,0,0,1,.39,1.58l-3.08.76Z"/><path class="cls-3" d="M197.51,383.87a.8.8,0,0,1-.78-.61.81.81,0,0,1,.59-1l3.08-.76a.81.81,0,1,1,.39,1.58l-3.08.76A.68.68,0,0,1,197.51,383.87Z"/><path class="cls-17" d="M247.24,226.64v4.1c0,2.36-1.42,4.27-3.18,4.27H22.59c-1.75,0-3.18-1.91-3.18-4.27v-4.1c0-2.36,1.43-4.27,3.18-4.27H244.06C245.82,222.37,247.24,224.28,247.24,226.64Z"/><rect class="cls-18" x="19.41" y="227.94" width="227.83" height="1.88"/><path class="cls-18" d="M240.59,245.54H32.41a1.69,1.69,0,0,1-1.68-1.69V235H242.27v8.89A1.69,1.69,0,0,1,240.59,245.54Z"/><rect class="cls-18" x="45.07" y="297.78" width="186.17" height="7.26"/><polygon class="cls-17" points="31.65 394.98 67.69 245.54 55.03 245.54 18.99 394.98 31.65 394.98"/><polygon class="cls-17" points="244.41 394.98 208.37 245.54 221.03 245.54 257.07 394.98 244.41 394.98"/><rect class="cls-12" x="37.97" y="188.14" width="3.95" height="29.81" transform="translate(-30.29 8.39) rotate(-8.71)"/><polygon class="cls-10" points="39.64 188.01 35.73 188.61 36.59 185.63 37.04 184.08 37.93 185.42 39.64 188.01"/><rect class="cls-5" x="40.06" y="215.62" width="3.95" height="2.17" transform="translate(-32.33 8.87) rotate(-8.71)"/><path class="cls-6" d="M44.15,219.22l-3.38.52a.25.25,0,0,1-.3-.22l-.22-1.44,3.9-.6.23,1.44A.26.26,0,0,1,44.15,219.22Z"/><polygon class="cls-5" points="37.93 185.42 36.59 185.63 37.04 184.08 37.93 185.42"/><rect class="cls-13" x="39.78" y="214.09" width="3.95" height="1.55" transform="translate(-32.05 8.8) rotate(-8.71)"/><path class="cls-13" d="M36.93,189.92l3.34,21.82a.3.3,0,0,0,.34.25h0a.31.31,0,0,0,.26-.35l-3.35-21.82a.3.3,0,0,0-.34-.25h0A.3.3,0,0,0,36.93,189.92Z"/><path class="cls-13" d="M38.45,189.68,41.8,211.5a.3.3,0,0,0,.34.25h0a.29.29,0,0,0,.25-.34l-3.34-21.82a.29.29,0,0,0-.34-.25h0A.3.3,0,0,0,38.45,189.68Z"/><rect class="cls-17" x="42.8" y="188.16" width="3.95" height="29.81" transform="translate(-0.67 0.15) rotate(-0.19)"/><polygon class="cls-10" points="46.71 188.15 42.75 188.16 44.05 185.34 44.72 183.88 45.4 185.33 46.71 188.15"/><rect class="cls-5" x="42.85" y="215.8" width="3.95" height="2.17" transform="translate(-0.71 0.15) rotate(-0.19)"/><path class="cls-6" d="M46.55,219.68l-3.43,0a.28.28,0,0,1-.27-.27V218H46.8v1.46A.26.26,0,0,1,46.55,219.68Z"/><polygon class="cls-5" points="45.4 185.33 44.05 185.34 44.72 183.88 45.4 185.33"/><rect class="cls-18" x="42.84" y="214.25" width="3.95" height="1.55" transform="translate(-0.71 0.15) rotate(-0.19)"/><path class="cls-18" d="M43.74,189.63l.07,22.07a.3.3,0,0,0,.31.3h0a.3.3,0,0,0,.3-.3l-.08-22.07a.3.3,0,0,0-.3-.31h0A.31.31,0,0,0,43.74,189.63Z"/><path class="cls-18" d="M45.29,189.62l.07,22.08a.31.31,0,0,0,.3.3h0a.3.3,0,0,0,.3-.31l-.07-22.07a.3.3,0,0,0-.3-.3h0A.29.29,0,0,0,45.29,189.62Z"/><rect class="cls-14" x="34.57" y="201.07" width="29.81" height="3.95" transform="translate(-158.51 223.47) rotate(-81.91)"/><polygon class="cls-10" points="53.53 188.57 49.61 188.01 51.3 185.41 52.17 184.06 52.63 185.59 53.53 188.57"/><rect class="cls-5" x="45.55" y="215.65" width="3.95" height="2.17" transform="translate(30.96 -4.53) rotate(8.09)"/><path class="cls-6" d="M48.83,219.75l-3.39-.48a.25.25,0,0,1-.22-.3l.2-1.44,3.92.55-.21,1.45A.26.26,0,0,1,48.83,219.75Z"/><polygon class="cls-5" points="52.63 185.59 51.3 185.41 52.17 184.06 52.63 185.59"/><rect class="cls-15" x="47.02" y="212.91" width="1.55" height="3.95" transform="translate(-171.68 231.97) rotate(-81.91)"/><path class="cls-15" d="M50.38,189.61l-3.1,21.85a.29.29,0,0,0,.25.34h0a.29.29,0,0,0,.34-.25L51,189.69a.3.3,0,0,0-.26-.34h0A.3.3,0,0,0,50.38,189.61Z"/><path class="cls-15" d="M51.91,189.82l-3.1,21.86a.3.3,0,0,0,.25.34h0a.3.3,0,0,0,.34-.26l3.11-21.85a.3.3,0,0,0-.26-.34h0A.3.3,0,0,0,51.91,189.82Z"/><polygon class="cls-6" points="54.81 199.94 54.61 201.54 54.42 202.99 54.13 205.2 53.95 206.63 53.66 208.86 53.48 210.27 53.19 212.51 53.01 213.91 52.72 216.17 52.54 217.55 52.24 219.83 52.07 221.19 51.92 222.37 36.38 222.37 36.23 221.19 36.05 219.83 35.76 217.55 35.58 216.17 35.29 213.91 35.1 212.51 34.82 210.27 34.63 208.86 34.34 206.63 34.16 205.2 33.88 202.99 33.69 201.54 33.48 199.94 54.81 199.94"/><polygon class="cls-19" points="54.61 201.54 54.42 202.99 33.88 202.99 33.69 201.54 54.61 201.54"/><polygon class="cls-19" points="54.13 205.2 53.95 206.63 34.34 206.63 34.16 205.2 54.13 205.2"/><polygon class="cls-19" points="53.66 208.86 53.48 210.27 34.82 210.27 34.63 208.86 53.66 208.86"/><polygon class="cls-19" points="53.19 212.51 53.01 213.91 35.29 213.91 35.1 212.51 53.19 212.51"/><polygon class="cls-19" points="52.72 216.17 52.54 217.55 35.76 217.55 35.58 216.17 52.72 216.17"/><polygon class="cls-19" points="52.24 219.83 52.07 221.19 36.23 221.19 36.05 219.83 52.24 219.83"/><path class="cls-5" d="M246,143.12l-13.25,56-.35,1.47-.89,3.77a3.61,3.61,0,0,1-3.52,2.79H138.68a3.62,3.62,0,0,1-3.53-4.45l14.49-61.28a3.63,3.63,0,0,1,3.53-2.79h89.26A3.62,3.62,0,0,1,246,143.12Z"/><polygon class="cls-4" points="232.7 199.16 232.35 200.63 139.67 200.63 139.67 199.16 232.7 199.16"/><path class="cls-12" d="M174.65,152.54a9.07,9.07,0,0,1-8.53,7.19,5.8,5.8,0,0,1-5.85-7.19,9.06,9.06,0,0,1,8.53-7.19A5.8,5.8,0,0,1,174.65,152.54Z"/><path class="cls-5" d="M166.53,151.16c-.15.8-.55,1.44-.9,1.44s-.5-.64-.35-1.44.54-1.44.89-1.44S166.67,150.37,166.53,151.16Z"/><path class="cls-5" d="M170.28,151.16c-.15.8-.55,1.44-.9,1.44s-.5-.64-.35-1.44.55-1.44.89-1.44S170.43,150.37,170.28,151.16Z"/><path class="cls-5" d="M166.87,156a3.19,3.19,0,0,1-3.23-3.12.4.4,0,0,1,.31-.38.26.26,0,0,1,.33.24,2.64,2.64,0,0,0,2.7,2.63,4.24,4.24,0,0,0,3.69-2.63.4.4,0,0,1,.42-.24.27.27,0,0,1,.17.38S170,156,166.87,156Z"/><path class="cls-6" d="M215.91,186.11c.08,3.72,6.38,8.38,6.38,8.38s7.32-4.66,8.21-8.38c1-4-3.64-5.27-7.05-2.23C220.7,180.84,215.83,182.08,215.91,186.11Z"/><path class="cls-4" d="M202.58,175.33a8,8,0,0,1-7.76,7,6.13,6.13,0,0,1-6.21-7,8,8,0,0,1,7.75-7A6.14,6.14,0,0,1,202.58,175.33Z"/><path class="cls-4" d="M156.7,138.67l-15.43,68.52h-2.59a3.63,3.63,0,0,1-3.53-4.45l14.49-61.28a3.63,3.63,0,0,1,3.53-2.79Z"/><polygon class="cls-3" points="182.56 207.19 179.85 222.42 188.79 222.42 191.5 207.19 182.56 207.19"/><path class="cls-3" d="M166.46,219.8l1.84-2.58a3.5,3.5,0,0,1,2.84-1.46h24.52a3.48,3.48,0,0,1,3.08,1.87L200,220a1.66,1.66,0,0,1-1.47,2.43H167.82A1.66,1.66,0,0,1,166.46,219.8Z"/><path class="cls-3" d="M115.37,222.41H189l.8-2.78a2.72,2.72,0,0,0-2.62-3.49h-68a2.74,2.74,0,0,0-2.63,2Z"/><rect class="cls-6" x="177.1" y="95.77" width="37.15" height="24.59" rx="2.29"/><polygon class="cls-6" points="210.02 116.68 207.04 127.9 201.85 117.36 210.02 116.68"/><path class="cls-3" d="M203.9,106.25c-.66,4.21-8.5,9.46-8.5,9.46s-7.56-5.27-8-9.47c-.46-4.56,4.94-5.95,8.32-2.51C199.31,100.29,204.63,101.69,203.9,106.25Z"/><ellipse class="cls-2" cx="618.53" cy="396.05" rx="55.48" ry="5.48"/><rect class="cls-5" x="580.05" y="350.49" width="74.86" height="5.93" rx="2.41"/><rect class="cls-4" x="581.28" y="284.79" width="72.55" height="12.53" rx="2.06"/><path class="cls-17" d="M599.49,231.49s-28.85-5.7-36.9-25.83,21.39-35.23,36.9-24.42C616.09,192.81,599.49,231.49,599.49,231.49Z"/><path class="cls-5" d="M616.65,284.38a.52.52,0,0,1-.51-.45c-2.77-18.69-13.91-45.59-22.77-64.87-9.61-20.9-18.67-37.58-18.76-37.75a.52.52,0,0,1,.2-.71.53.53,0,0,1,.71.21c.09.17,9.18,16.88,18.8,37.81,8.89,19.34,20.07,46.34,22.85,65.16a.53.53,0,0,1-.44.59Z"/><path class="cls-5" d="M598.41,229.55a.53.53,0,0,1-.46-.28c-12.55-23.37-32.93-40.33-33.13-40.5a.52.52,0,0,1,.66-.81c.21.17,20.74,17.26,33.39,40.82a.51.51,0,0,1-.21.7A.47.47,0,0,1,598.41,229.55Z"/><path class="cls-5" d="M599,231.22a.53.53,0,0,1-.4-.18,100.29,100.29,0,0,0-24.77-21.2,62.75,62.75,0,0,0-11.5-5.55.53.53,0,0,1-.34-.65.52.52,0,0,1,.66-.34,61.83,61.83,0,0,1,11.68,5.63,101.27,101.27,0,0,1,25.07,21.43.52.52,0,0,1-.06.74A.54.54,0,0,1,599,231.22Z"/><path class="cls-5" d="M596.44,225.09a.5.5,0,0,1-.49-.35c-7-20.65-4.45-45.74-4.42-46a.51.51,0,0,1,.57-.46.52.52,0,0,1,.47.57c0,.25-2.59,25.12,4.37,45.54a.53.53,0,0,1-.33.66A.51.51,0,0,1,596.44,225.09Z"/><path class="cls-5" d="M598.21,229.18a.52.52,0,0,1-.51-.44A72.49,72.49,0,0,1,599,198.37a47.83,47.83,0,0,1,4.41-11.44.53.53,0,0,1,.72-.19.52.52,0,0,1,.18.72A48.55,48.55,0,0,0,600,198.68a71.72,71.72,0,0,0-1.23,29.89.52.52,0,0,1-.43.6Z"/><path class="cls-17" d="M629.93,236.75s29.14-4,38.37-23.6S649,176.72,632.9,186.59C615.65,197.15,629.93,236.75,629.93,236.75Z"/><path class="cls-5" d="M618.88,282.67h0a.53.53,0,0,1-.52-.53c.12-9.63,2.22-20.6,6.25-32.6A214,214,0,0,1,637.81,219a281,281,0,0,1,19.07-31.47.53.53,0,0,1,.73-.12.54.54,0,0,1,.12.73,278.71,278.71,0,0,0-19,31.36c-8.68,16.66-19.07,41.06-19.33,62.63A.52.52,0,0,1,618.88,282.67Z"/><path class="cls-5" d="M631.16,234.87a.55.55,0,0,1-.28-.07.53.53,0,0,1-.17-.72c14-22.77,35.53-38.61,35.75-38.77a.52.52,0,1,1,.61.85c-.21.15-21.56,15.87-35.47,38.47A.51.51,0,0,1,631.16,234.87Z"/><path class="cls-5" d="M630.49,236.51a.54.54,0,0,1-.36-.14.52.52,0,0,1,0-.74,101.24,101.24,0,0,1,26.3-19.91,61.2,61.2,0,0,1,12-4.93.52.52,0,0,1,.63.38.51.51,0,0,1-.37.63,62.44,62.44,0,0,0-11.81,4.86,100.34,100.34,0,0,0-26,19.69A.52.52,0,0,1,630.49,236.51Z"/><path class="cls-5" d="M633.39,230.54a.64.64,0,0,1-.2,0,.53.53,0,0,1-.29-.69c8.16-20,7.07-44.95,7.06-45.2a.52.52,0,0,1,.5-.54.51.51,0,0,1,.54.49c0,.25,1.11,25.46-7.13,45.65A.52.52,0,0,1,633.39,230.54Z"/><path class="cls-5" d="M631.38,234.52h-.12a.53.53,0,0,1-.39-.63A71.46,71.46,0,0,0,631.4,204a48.28,48.28,0,0,0-3.64-11.46.53.53,0,0,1,.22-.7.54.54,0,0,1,.71.22,48.51,48.51,0,0,1,3.73,11.69,72.71,72.71,0,0,1-.53,30.39A.53.53,0,0,1,631.38,234.52Z"/><path class="cls-17" d="M618.71,198.79S594,182.81,594,161.13s32.91-24.8,43.32-9C648.46,169,618.71,198.79,618.71,198.79Z"/><path class="cls-5" d="M615.26,254.31l-.12,0a.52.52,0,0,1-.39-.63c4.36-18.39,4-47.5,2.88-68.69-1.19-23-3.43-41.82-3.46-42a.53.53,0,0,1,.46-.58.53.53,0,0,1,.58.46c0,.19,2.27,19.07,3.46,42.08,1.09,21.25,1.48,50.47-2.9,69A.52.52,0,0,1,615.26,254.31Z"/><path class="cls-5" d="M618.62,196.62a.53.53,0,0,1-.52-.46c-3-26.36-15.65-49.66-15.78-49.9a.52.52,0,0,1,.91-.5c.13.24,12.88,23.71,15.91,50.28a.54.54,0,0,1-.46.58Z"/><path class="cls-5" d="M618.53,198.38a.53.53,0,0,1-.5-.35,100.31,100.31,0,0,0-15.16-28.86,62.19,62.19,0,0,0-8.62-9.41.53.53,0,0,1-.08-.74.53.53,0,0,1,.74-.07,62.29,62.29,0,0,1,8.76,9.55A101.33,101.33,0,0,1,619,197.7a.51.51,0,0,1-.32.66A.52.52,0,0,1,618.53,198.38Z"/><path class="cls-5" d="M618.44,191.75h0a.51.51,0,0,1-.49-.55c1.11-21.78,12.8-44.13,12.92-44.35a.52.52,0,0,1,.71-.22.51.51,0,0,1,.21.7c-.11.23-11.7,22.38-12.8,43.93A.51.51,0,0,1,618.44,191.75Z"/><path class="cls-5" d="M618.57,196.2h-.11a.52.52,0,0,1-.4-.62,73.61,73.61,0,0,1,12.46-27.88,49.53,49.53,0,0,1,8.37-9.12.52.52,0,0,1,.64.82,49.5,49.5,0,0,0-8.2,9,72.8,72.8,0,0,0-12.25,27.44A.51.51,0,0,1,618.57,196.2Z"/><path class="cls-14" d="M648.88,251.5l-.87,2.28-.54,1.45-1.56,4.15-.55,1.44-1.6,4.26-.54,1.44-6.88,18.27H598.76l-6.87-18.27-.55-1.44-1.6-4.26-.55-1.44-1.56-4.15-.54-1.45-.86-2.28a2.39,2.39,0,0,1,2.24-3.24h58.17A2.4,2.4,0,0,1,648.88,251.5Z"/><polygon class="cls-15" points="648.01 253.78 647.47 255.23 587.63 255.23 587.09 253.78 648.01 253.78"/><polygon class="cls-15" points="645.91 259.38 645.36 260.82 589.74 260.82 589.19 259.38 645.91 259.38"/><polygon class="cls-15" points="643.76 265.08 643.22 266.52 591.88 266.52 591.34 265.08 643.76 265.08"/><polygon class="cls-5" points="607.49 297.31 605.4 304.03 576.39 397.53 570.73 397.53 589.12 305.94 590.85 297.31 607.49 297.31"/><polygon class="cls-5" points="664.55 397.53 658.88 397.53 629.01 301.27 627.79 297.31 644.41 297.31 644.84 299.41 644.84 299.41 664.55 397.53"/><rect class="cls-4" x="580.05" y="337.59" width="74.86" height="5.93" rx="2.41"/><ellipse class="cls-2" cx="195.8" cy="30.26" rx="27.12" ry="26.78"/><ellipse class="cls-14" cx="195.8" cy="26.78" rx="27.12" ry="26.78"/><ellipse class="cls-3" cx="195.8" cy="26.78" rx="22.04" ry="21.77"/><path class="cls-2" d="M217.85,26.78c0,.58,0,1.15-.07,1.72a22.07,22.07,0,0,0-43.95,0c-.05-.57-.07-1.14-.07-1.72a22,22,0,0,1,44.09,0Z"/><path class="cls-5" d="M195.8,29a.53.53,0,0,1-.44-.22L184.54,14.45a.55.55,0,1,1,.89-.65l10.55,14,12-5.2a.55.55,0,1,1,.45,1L196,29A.54.54,0,0,1,195.8,29Z"/></g></g></svg>